<?xml version="1.0" encoding="utf-8"?>
<!-- Generator: Adobe Illustrator 24.0.2, SVG Export Plug-In . SVG Version: 6.00 Build 0)  -->
<svg version="1.1" id="Layer_1" xmlns="http://www.w3.org/2000/svg" xmlns:xlink="http://www.w3.org/1999/xlink" x="0px" y="0px"
	 viewBox="0 0 378.7 85.4" style="enable-background:new 0 0 378.7 85.4;" xml:space="preserve">
<style type="text/css">
	.st0{enable-background:new    ;}
	.st1{fill:#0D4689;}
	.st2{fill:#A6CE39;}
	.st3{fill:#2E3192;}
	.st4{fill:#EF3D46;}
</style>
<g>
	<g class="st0">
		<path class="st1" d="M48.5,64.7c0,0.9-0.3,1.6-1,2.1c-0.6,0.5-1.3,0.8-2.1,0.8c-0.8,0-1.5-0.3-2-1L18.1,34.7L5.7,46.3v18.1
			c-0.1,0.8-0.4,1.5-0.9,2c-0.5,0.5-1.2,0.8-2,0.8c-0.8,0-1.5-0.3-2-0.8c-0.5-0.5-0.8-1.2-0.8-2v-58c0-0.8,0.3-1.5,0.8-2
			c0.5-0.5,1.2-0.8,2.1-0.8c0.8,0,1.5,0.3,2,0.8c0.5,0.5,0.8,1.2,0.8,2v33L42.4,4.7c0.5-0.6,1.2-0.9,2-0.9c0.7,0,1.3,0.3,1.9,0.8
			c0.5,0.5,0.8,1.2,0.8,1.8c0,0.7-0.3,1.4-0.8,1.9L22.4,30.6l25.4,32.2C48.3,63.4,48.5,64,48.5,64.7z"/>
		<path class="st1" d="M103.6,21.6c0.5,0.5,0.8,1.2,0.8,2v40.9c0,0.8-0.3,1.4-0.8,2c-0.5,0.5-1.2,0.8-2,0.8c-0.8,0-1.4-0.3-2-0.8
			c-0.5-0.5-0.8-1.2-0.8-2v-6.1c-1.5,2.7-3.8,5-6.8,6.9c-3,1.9-6.3,2.8-9.9,2.8c-4.1,0-7.7-1.1-10.9-3.2c-3.2-2.1-5.8-5-7.6-8.7
			c-1.8-3.7-2.8-7.8-2.8-12.4c0-4.6,0.9-8.7,2.8-12.4c1.9-3.7,4.4-6.5,7.7-8.6c3.2-2.1,6.8-3.1,10.8-3.1c3.6,0,7,0.9,10,2.6
			c3,1.8,5.3,4.1,6.8,6.9v-5.6c0-0.8,0.3-1.5,0.8-2c0.5-0.5,1.2-0.8,2-0.8C102.4,20.8,103.1,21.1,103.6,21.6z M91.3,60.5
			c2.5-1.7,4.5-4,5.9-6.9c1.4-2.9,2.1-6.2,2.1-9.9c0-3.5-0.7-6.7-2.1-9.6c-1.4-2.9-3.4-5.2-5.9-6.9c-2.5-1.7-5.3-2.5-8.5-2.5
			c-3.1,0-6,0.8-8.5,2.5c-2.5,1.6-4.5,3.9-5.9,6.8c-1.4,2.9-2.1,6.1-2.1,9.8c0,3.6,0.7,6.9,2.1,9.9c1.4,2.9,3.3,5.2,5.9,6.9
			c2.5,1.7,5.4,2.5,8.6,2.5C85.9,63,88.7,62.2,91.3,60.5z"/>
		<path class="st1" d="M127.9,66.5c-0.5,0.5-1.2,0.8-2,0.8c-0.8,0-1.4-0.3-2-0.8c-0.5-0.5-0.8-1.2-0.8-2V2.7c0-0.8,0.3-1.4,0.8-2
			c0.5-0.5,1.2-0.8,2-0.8c0.8,0,1.4,0.3,2,0.8c0.5,0.5,0.8,1.2,0.8,2v61.8C128.6,65.3,128.4,65.9,127.9,66.5z"/>
		<path class="st1" d="M210.4,66.5c-0.5,0.5-1.2,0.8-2,0.8c-0.8,0-1.4-0.3-2-0.8c-0.5-0.5-0.8-1.2-0.8-2V2.7c0-0.8,0.3-1.4,0.8-2
			c0.5-0.5,1.2-0.8,2-0.8c0.8,0,1.4,0.3,2,0.8c0.5,0.5,0.8,1.2,0.8,2v61.8C211.1,65.3,210.9,65.9,210.4,66.5z"/>
		<path class="st1" d="M265.2,20.8c0.5,0.5,0.8,1.2,0.8,2v40.1c0,4.8-0.9,8.9-2.8,12.3c-1.9,3.4-4.5,6-7.8,7.7
			c-3.3,1.8-7.1,2.6-11.3,2.6c-2.5,0-4.9-0.3-7.1-0.8c-2.2-0.5-4-1.3-5.5-2.2c-1.3-0.8-1.9-1.7-1.9-2.6c0-0.1,0.1-0.4,0.2-0.9
			c0.2-0.6,0.5-1.1,0.9-1.4c0.4-0.3,0.9-0.5,1.4-0.5c0.4,0,0.7,0.1,1.1,0.3c3.9,2.1,7.6,3.2,11.1,3.2c5,0,9-1.6,11.9-4.7
			c2.9-3.2,4.4-7.5,4.4-12.9v-3.2c-1.5,2.5-3.7,4.6-6.5,6.1c-2.8,1.5-5.9,2.3-9.3,2.3c-5.3,0-9.3-1.6-12-4.7s-4.1-7.4-4.1-12.8V22.7
			c0-0.8,0.3-1.4,0.8-2c0.5-0.5,1.2-0.8,2-0.8c0.8,0,1.4,0.3,2,0.8c0.5,0.5,0.8,1.2,0.8,2v27.1c0,4.4,1,7.7,2.9,9.9
			c1.9,2.2,4.9,3.4,8.9,3.4c2.5,0,4.9-0.6,7.1-1.9c2.3-1.2,4.1-2.9,5.5-4.9c1.4-2,2-4.2,2-6.5V22.7c0-0.8,0.3-1.4,0.8-2
			c0.5-0.5,1.2-0.8,2-0.8C264.1,20,264.7,20.2,265.2,20.8z"/>
		<path class="st1" d="M293.3,26.1v30.4c0,2.3,0.4,3.9,1.3,4.7c0.8,0.8,2,1.2,3.4,1.2c0.4,0,0.8-0.1,1.4-0.2s1-0.2,1.3-0.2
			c0.5,0,1,0.2,1.4,0.7c0.4,0.5,0.6,1,0.6,1.6c0,0.8-0.5,1.6-1.5,2.1c-1,0.6-2.1,0.9-3.5,0.9c-1.6,0-3.1-0.2-4.4-0.5
			c-1.3-0.3-2.5-1.2-3.7-2.7c-1.2-1.5-1.8-3.9-1.8-7.3V26.1h-6.6c-0.7,0-1.3-0.2-1.9-0.7c-0.5-0.5-0.8-1.1-0.8-1.8s0.3-1.3,0.8-1.8
			c0.5-0.5,1.1-0.7,1.9-0.7h6.6V10.9c0-0.8,0.3-1.4,0.8-2c0.5-0.5,1.2-0.8,2-0.8c0.8,0,1.4,0.3,2,0.8c0.5,0.5,0.8,1.2,0.8,2V21h9.1
			c0.7,0,1.3,0.3,1.8,0.8c0.5,0.5,0.8,1.2,0.8,1.8c0,0.7-0.2,1.3-0.7,1.8s-1.1,0.7-1.8,0.7H293.3z"/>
		<path class="st1" d="M318.8,13c-0.7-0.6-1-1.4-1-2.5V9.6c0-1.1,0.3-1.9,1-2.5c0.7-0.6,1.6-0.9,2.9-0.9c2.4,0,3.6,1.1,3.6,3.4v0.9
			c0,1.1-0.3,1.9-1,2.5c-0.6,0.6-1.6,0.9-2.8,0.9C320.4,13.9,319.4,13.6,318.8,13z M323.6,66.5c-0.5,0.5-1.2,0.8-2,0.8
			c-0.8,0-1.4-0.3-2-0.8c-0.5-0.5-0.8-1.2-0.8-2V22.7c0-0.8,0.3-1.4,0.8-2c0.5-0.5,1.2-0.8,2-0.8c0.8,0,1.4,0.3,2,0.8
			c0.5,0.5,0.8,1.2,0.8,2v41.8C324.3,65.3,324.1,65.9,323.6,66.5z"/>
		<path class="st1" d="M370.5,20.7c2.5,0.6,4.4,1.5,5.9,2.6c1.5,1.1,2.2,2.3,2.2,3.5c0,0.7-0.2,1.3-0.7,1.8s-1,0.8-1.7,0.8
			c-0.6,0-1.1-0.1-1.5-0.4c-0.4-0.2-0.8-0.6-1.3-1.1c-0.8-0.8-1.5-1.4-2.3-1.7c-0.9-0.4-2.1-0.8-3.6-1c-1.5-0.3-3.1-0.4-4.8-0.4
			c-3.3,0-6.4,0.8-9.1,2.5c-2.8,1.7-4.9,4-6.5,6.9c-1.6,2.9-2.4,6.1-2.4,9.6c0,3.6,0.8,6.9,2.3,9.8c1.5,2.9,3.6,5.2,6.3,6.9
			c2.7,1.7,5.8,2.5,9.2,2.5c2.2,0,3.9-0.2,5.2-0.5c1.3-0.4,2.6-0.9,3.9-1.5c0.4-0.2,1.1-0.8,2.2-1.6c0.5-0.4,0.9-0.7,1.3-1
			c0.4-0.2,0.8-0.3,1.2-0.3c0.7,0,1.3,0.2,1.7,0.7c0.4,0.5,0.6,1,0.6,1.8c0,1-0.7,2.1-2.2,3.3c-1.5,1.2-3.5,2.2-6,3
			s-5.4,1.3-8.4,1.3c-4.4,0-8.4-1-11.8-3.1c-3.5-2.1-6.1-5-8-8.7c-1.9-3.7-2.9-7.8-2.9-12.4c0-4.4,1-8.5,2.9-12.1
			c1.9-3.7,4.7-6.6,8.2-8.8c3.5-2.2,7.5-3.3,12.1-3.3C365.4,19.7,368.1,20,370.5,20.7z"/>
	</g>
	<g>
		<path class="st2" d="M188.6,57.7c3.9-4.6,6.2-10.5,6.2-17c0-14.6-11.8-26.4-26.4-26.4c-3.6,0-7,0.7-10.1,2
			C166.8,20.3,187.9,32.6,188.6,57.7z"/>
		<path class="st3" d="M144.7,29c-1.7,3.5-2.7,7.5-2.7,11.7c0,2,0.2,4,0.7,5.9c0.4-0.2,27.9-13.5,44.1,13.1c0.6-0.6,1.2-1.2,1.8-1.9
			C188.5,57.5,178.5,27.9,144.7,29z"/>
		<path class="st4" d="M147.4,56.8c4.8,6.3,12.4,10.3,20.9,10.3c7.2,0,13.6-2.9,18.4-7.5C186.6,59.4,169.1,41.9,147.4,56.8z"/>
	</g>
</g>
</svg>
